<?xml version="1.0" encoding="UTF-8"?><svg id="Camada_2" xmlns="http://www.w3.org/2000/svg" viewBox="0 0 161.3 51"><defs><style>.cls-1{fill:#ee3a42;}.cls-1,.cls-2,.cls-3,.cls-4{stroke-width:0px;}.cls-2{fill:#fff;}.cls-3{fill:#efc30a;}.cls-4{fill:#005b8f;}</style></defs><g id="Camada_1-2"><path class="cls-3" d="M144.4,51H6.8c-4.2,0-7.4-3.7-6.7-7.8L5.4,10.3c.6-4.2,4.2-7.3,8.4-7.3h137.9c4.2,0,7.1,3.7,6.4,7.8l-5.4,32.9c-.6,4.2-4.2,7.3-8.4,7.3Z"/><path class="cls-2" d="M147.4,48H9.8c-4.2,0-7.4-3.7-6.7-7.8L8.4,7.3C9,3.1,12.6,0,16.8,0h137.9c4.2,0,7.1,3.7,6.4,7.8l-5.4,32.9c-.6,4.2-4.2,7.3-8.4,7.3Z"/><path class="cls-4" d="M100.9,15c0,.2-.2.3-.3.3-.1,0,0,0,0,0,0,0-.1,0-.2,0-.9-.1-1.8-.2-2.8-.3-.9,0-1.9-.1-2.8-.1s-1.7.1-2.2.3c-.6.2-.9.7-1,1.5-.1.6,0,1.1.4,1.3.3.2.8.5,1.4.8l3.2,1.4c1.4.6,2.5,1.4,3.1,2.4.7,1,.9,2.2.6,3.7-.3,2-1.2,3.4-2.8,4.5-1.6,1.1-3.6,1.6-6,1.6s-2.7,0-3.9-.2c-1.2-.2-2.4-.4-3.6-.7-.3,0-.4-.2-.4-.6l.5-3s0,0,0,0c0-.2.2-.3.4-.3.1,0,0,0,.1,0,1,.1,2.1.2,3.3.3,1.2,0,2.4.1,3.4.1s1.9-.1,2.4-.4c.6-.3.9-.8,1-1.5,0-.6,0-1.1-.4-1.4-.3-.3-.8-.6-1.4-.9l-3-1.3c-1.5-.6-2.6-1.4-3.3-2.3-.7-.9-.9-2.1-.7-3.6.2-1.1.5-2,1-2.7.5-.8,1.1-1.4,1.9-1.9.7-.5,1.6-.8,2.6-1.1,1-.2,2.1-.3,3.2-.3s2.3,0,3.4.2c1.1.2,2.1.4,2.9.7.2,0,.5.2.4.6l-.5,3s0,0,0,.1ZM118.3,11.4c-.8-.3-1.8-.5-2.9-.7-1.1-.2-2.3-.2-3.4-.2s-2.2.1-3.2.3c-1,.2-1.9.6-2.6,1.1-.7.5-1.4,1.1-1.9,1.9-.5.7-.8,1.7-1,2.7-.2,1.5,0,2.7.7,3.6.7.9,1.8,1.7,3.3,2.3l3,1.3c.6.3,1.1.6,1.4.9.4.3.5.8.4,1.4-.1.7-.5,1.2-1,1.5-.6.3-1.3.4-2.4.4s-2.1,0-3.4-.1c-1.2,0-2.3-.2-3.3-.3,0,0,0,0-.1,0-.2,0-.3.1-.4.3,0,.2,0,0,0,0l-.5,3c0,.3,0,.5.4.6,1.1.3,2.3.5,3.6.7,1.2.2,2.6.2,3.9.2,2.4,0,4.4-.5,6-1.6,1.6-1.1,2.5-2.5,2.8-4.5.2-1.5,0-2.7-.6-3.7-.7-1-1.7-1.8-3.1-2.4l-3.2-1.4c-.6-.3-1.1-.5-1.4-.8-.4-.3-.5-.7-.4-1.3.1-.7.5-1.2,1-1.5.5-.2,1.2-.3,2.2-.3s1.9,0,2.8.1c.9,0,1.9.2,2.8.3,0,0,0,0,.2,0s0,0,0,0c.1,0,.3-.1.3-.3s0,0,0-.1l.5-3c0-.4-.2-.5-.4-.6ZM81.9,16.5h-3.4c0,0-.1,0,0,0,1.6-.2,4.8-1.5,5.1-3.6.1-.8.2-2.1-1.4-2.1h-2.6c-.5,0-1.2.4-1.3,1.1l-3.1,18.7c-.2,1,.1,1.4.6,1.4h3.7c.5,0,1-.4,1-.9l.4-2.2s1-6.1,1.8-11.1c.1-.8-.4-1.2-1.1-1.2ZM148.1,12.9c.1-.8.2-2.1-1.4-2.1h-2.6c-.5,0-1.2.4-1.3,1.1l-3.1,18.7c-.2,1,.1,1.4.6,1.4h3.7c.5,0,1-.4,1-.9l.4-2.2s1-6.1,1.8-11.1c.1-.8-.4-1.2-1.1-1.2h-3.4c0,0-.1,0,0,0,1.6-.2,4.8-1.5,5.1-3.6ZM67.9,10.9c-2.2,0-12.6,0-14.3,0-.9,0-1.3.6-1.4,1.5-.1.8-.3,1.9-.4,2.6-.1.7.2,1,.9,1s.8,0,1.2,0c1.9,0,4.3,0,4.5,0,.4,0,.1.1,0,.2-.9.3-3.7,2-4.3,5.9-.1.7-1.4,8.5-1.4,8.5,0,.2,0,.3,0,.5,0,.7.4.9.7.9h2.9s0,0,.3,0c1.1,0,1.4-.3,1.6-1.4.3-1.6,2.2-13.6,2.4-14.5.9,0,1.9,0,3.4,0,1.5,0,3.4-.1,4.2,1,.8,1.1.6,2.3.4,4.1,0,0-1.6,9.5-1.6,9.5,0,.2,0,.3,0,.5,0,.7.4.9.7.9h2.9s0,0,.3,0c1.1,0,1.4-.3,1.6-1.4,0-.4,2-12,2.1-12.8.9-5.4-4.2-6.9-6.4-6.9ZM139.5,19.2c-.3,1.5-.9,2.6-2.1,3.4-1.2.7-2.7,1.1-4.6,1.1,0,0-3.9.2-5.9-.3-1.2-.3-1.5-2.1-1.7-2.7-.5,2.1-.4,3.5-.4,3.5,0,1.5.5,2.6,1.5,3.2.9.6,2.2.9,3.9.9s2.1,0,3.2-.1c1.1,0,1.7-.1,2.6-.3,0,0,0,0,.1,0,.2,0,.4,0,.4.4l-.4,2.6c0,.2-.1.3-.4.4-1.1.3-2.2.5-3.4.7-1.2.2-2.4.2-3.5.2-2,0-3.6-.2-4.9-.7-1.3-.4-2.3-1.1-3-2-.7-.9-1.2-1.9-1.3-3.2-.2-1.3-.2-2.7.1-4.4l.2-1.3c.5-3.1,1.7-5.5,3.6-7.3,1.9-1.8,4.6-2.6,8.1-2.6s5.3.8,6.6,2.3c1.3,1.5,1.7,3.6,1.3,6.2ZM133.7,15.6c-.6-.6-1.5-1-2.9-1s-2.4.4-3.4,1.2c-1,.8-1.7,2.1-2.1,3.9,0,0,0,.3-.1.6,0,0,3.5,0,6.2,0,1.6,0,2.5-.4,2.8-1.8.2-1.2,0-2.2-.5-2.8Z"/><path class="cls-1" d="M82.3,42.2c-1,0-1.4-.4-1.3-1.2s.9-1.4,2.6-1.5h0s0,0,0,0c0-.4,0-.5,0-.6,0-.1-.2-.2-.5-.2-.5,0-.9.1-1.5.5h-.2c0,.1.2-.8.2-.8h0c.6-.3,1.2-.5,1.8-.5s1,.2,1.1.6c0,.2,0,.5,0,1l-.5,2.6h-.2c-.7.1-1.2.2-1.6.2ZM83.5,40.2c-1.2,0-1.4.3-1.5.7s.1.5.5.5.4,0,.8,0l.2-1.1Z"/><path class="cls-1" d="M85.4,42.1l.7-4.2h1l-.7,4.2h-1ZM86.2,37.2l.2-1.1h1.1l-.2,1.1h-1.1Z"/><path class="cls-1" d="M88.8,42.2c-.4,0-.7,0-1.2-.2h0s.2-1,.2-1h.1c.3.4.6.5,1,.5s.7-.2.8-.4,0-.3-.2-.4c0,0-.2-.1-.5-.3-.7-.4-1-.7-.9-1.2s.9-1.3,1.9-1.3.7,0,1.1.2h0s-.2,1-.2,1h-.1c-.3-.3-.6-.4-.9-.4s-.7.2-.8.4,0,.3.6.6c.4.2.6.3.8.5.2.2.3.5.2.8-.1.8-.9,1.3-1.9,1.3Z"/><path class="cls-1" d="M95.9,44.2l.4-2.1c-.3,0-.5,0-.8,0-1.4,0-2.1-.8-1.9-2.1s1.4-2.3,3.1-2.3.8,0,1.3.1h0s-1.1,6.2-1.1,6.2h-1ZM96.4,38.6c-1,0-1.6.5-1.8,1.4-.2.9.2,1.3,1.2,1.3s.4,0,.6,0l.5-2.6c-.2,0-.3,0-.4,0Z"/><path class="cls-1" d="M100.4,42.1c-.7,0-1.1-.1-1.4-.4-.3-.3-.3-.6-.2-1.3l.5-2.6h1l-.4,2.6c-.1.7,0,.9.8.9s.5,0,.7,0l.6-3.4h1l-.7,4.1h0c-.8.1-1.3.2-1.8.2Z"/><path class="cls-1" d="M105.6,42.2c-1.4,0-2.1-.8-1.9-2.1s1.3-2.3,2.6-2.3,1.2.3,1.5.8c.2.3.2.7,0,1.3v.3h-3.2s0,0,0,0c-.1.7.3,1.2,1.2,1.2s1-.1,1.5-.5h.2c0-.1-.2.8-.2.8h0c-.5.3-1.1.5-1.7.5ZM106.9,39.4c0-.5-.3-.8-.8-.8s-1,.3-1.2.8h2Z"/><path class="cls-1" d="M110.7,42.1l.6-3.3h-.7v-.8h.8c.2-1,.4-1.5.9-1.9.4-.3.9-.5,1.4-.5s.3,0,.4,0h0s-.1.8-.1.8h-.1c-.1,0-.2,0-.3,0-.3,0-.6.1-.8.3-.2.2-.3.5-.4,1.1h0c0,0,1.1,0,1.1,0v.8h-1.2l-.6,3.3h-1Z"/><path class="cls-1" d="M114.9,42.2c-1,0-1.4-.4-1.3-1.2s.9-1.4,2.6-1.5h0s0,0,0,0c0-.4,0-.5,0-.6,0-.1-.2-.2-.5-.2-.5,0-.9.1-1.5.5h-.2c0,.1.2-.8.2-.8h0c.6-.3,1.2-.5,1.8-.5s1,.2,1.1.6c0,.2,0,.5,0,1l-.5,2.6h-.2c-.7.1-1.2.2-1.6.2ZM116.1,40.2c-1.2,0-1.4.3-1.5.7s.1.5.5.5.4,0,.8,0l.2-1.1Z"/><path class="cls-1" d="M118,42.1l.7-3.9h0c.6-.2,1.2-.3,1.8-.3s.5,0,.8.1h0s-.1.9-.1.9h-.1c-.2-.1-.4-.2-.7-.2s-.5,0-.8.2l-.6,3.3h-1Z"/><path class="cls-1" d="M126.8,42.1l.5-2.7c.1-.6,0-.8-.7-.8s-.5,0-.8.1c0,.2,0,.3,0,.6l-.5,2.7h-1l.5-2.7c.1-.6,0-.8-.7-.8s-.5,0-.8.1l-.6,3.4h-1l.7-4h0c.7-.2,1.4-.3,2-.3s.8,0,1.2.3c.5-.2,1-.3,1.5-.3s1.1.2,1.3.5c.2.2.3.6.2,1.1l-.5,2.7h-1Z"/><path class="cls-1" d="M78.6,42.1l.5-2.7c.1-.6,0-.8-.7-.8s-.5,0-.8.1c0,.2,0,.3,0,.6l-.5,2.7h-1l.5-2.7c.1-.6,0-.8-.7-.8s-.5,0-.8.1l-.6,3.4h-1l.7-4h0c.7-.2,1.4-.3,2-.3s.8,0,1.2.3c.5-.2,1-.3,1.5-.3s1.1.2,1.3.5c.2.2.3.6.2,1.1l-.5,2.7h-1Z"/><path class="cls-1" d="M130.3,42.2c-1,0-1.4-.4-1.3-1.2s.9-1.4,2.6-1.5h0s0,0,0,0c0-.4,0-.5,0-.6,0-.1-.2-.2-.5-.2-.5,0-.9.1-1.5.5h-.2c0,.1.2-.8.2-.8h0c.6-.3,1.2-.5,1.8-.5s1,.2,1.1.6c0,.2,0,.5,0,1l-.5,2.6h-.2c-.7.1-1.2.2-1.6.2ZM131.5,40.2c-1.2,0-1.4.3-1.5.7s.1.5.5.5.4,0,.8,0l.2-1.1ZM130.8,37.4l1.9-1.8h1c0,0-2.1,1.9-2.1,1.9h-.7Z"/><path class="cls-1" d="M135.4,42.2c-1.4,0-2.2-.8-1.9-2.1s1.3-2.3,2.8-2.3.7,0,1.1.2h0s-.2,1-.2,1h-.1c-.3-.3-.5-.4-.9-.4-.9,0-1.5.5-1.6,1.4s.3,1.4,1.1,1.4.7,0,1.1-.3h.2c0,0-.2.8-.2.8h0c-.5.2-.8.3-1.3.3Z"/><path class="cls-1" d="M137.6,42.1l.7-4.2h1l-.7,4.2h-1ZM138.4,37.2l.2-1.1h1.1l-.2,1.1h-1.1Z"/><path class="cls-1" d="M141.2,42.2c-1,0-1.4-.4-1.3-1.2s.9-1.4,2.6-1.5h0s0,0,0,0c0-.4,0-.5,0-.6,0-.1-.2-.2-.5-.2-.5,0-.9.1-1.5.5h-.2c0,.1.2-.8.2-.8h0c.6-.3,1.2-.5,1.8-.5s1,.2,1.1.6c0,.2,0,.5,0,1l-.5,2.6h-.2c-.7.1-1.2.2-1.6.2ZM142.4,40.2c-1.2,0-1.4.3-1.5.7s.1.5.5.5.4,0,.8,0l.2-1.1Z"/><path class="cls-1" d="M42,22.4l-2.1,9.9c4.8-1.7,8.4-5.4,9.3-9.9h-7.2Z"/><path class="cls-1" d="M43.4,16h5.4c-.8-2.2-2.2-4.2-4.1-5.7l-1.2,5.7Z"/><path class="cls-1" d="M34.1,27.8c.5-1.6,1.1-4.3,6.2-5.2.4,0,.4-.2,0-.2-.6,0-16.3,0-16.3,0,.2-.9.7-3.5,1-4.5.4-1.6,1.2-1.9,2.7-1.9h8.9l2-8.8c-1.5-.4-3.1-.6-4.8-.6-8.6,0-15.5,6-15.5,13.3s6.4,12.8,14.5,13.3l1.2-5.4Z"/></g></svg>